<svg width="512" height="512" viewBox="0 0 512 512" fill="none" xmlns="http://www.w3.org/2000/svg">
  <path d="M256 362C314.542 362 362 314.542 362 256C362 197.458 314.542 150 256 150C197.458 150 150 197.458 150 256C150 314.542 197.458 362 256 362Z" fill="#0F2942"/>
  <path fill-rule="evenodd" clip-rule="evenodd" d="M256 512C240.24 512 225.101 505.783 213.91 494.61C213.064 493.765 212.247 492.894 211.458 491.996C200.778 479.839 194.88 464.12 194.88 447.625V420.739C174.008 414.931 154.212 405.524 136.215 392.937L117.162 411.99C106.101 423.051 91.0768 429.28 75.461 429.28C59.8453 429.28 44.821 423.051 33.7601 411.99C11.1685 389.399 11.1685 352.748 33.7601 330.157L52.8131 311.104C40.226 293.107 30.819 273.311 25.011 252.439H-1.875C-34.1165 252.439 -34.1165 211.458 -1.875 211.458H25.011C30.819 190.586 40.226 170.79 52.8131 152.793L33.7601 133.74C22.6991 122.679 16.4701 107.655 16.4701 92.0391C16.4701 76.4233 22.6991 61.399 33.7601 50.3381C56.3517 27.7465 93.0033 27.7465 115.595 50.3381L134.648 69.3911C152.645 56.804 172.441 47.397 193.313 41.589V14.7032C193.313 -17.5383 234.294 -17.5383 234.294 14.7032V41.589C255.166 47.397 274.962 56.804 292.959 69.3911L312.012 50.3381C323.073 39.2771 338.097 33.0481 353.713 33.0481C369.329 33.0481 384.353 39.2771 395.414 50.3381C418.006 72.9297 418.006 109.581 395.414 132.173L376.361 151.226C388.948 169.223 398.355 189.019 404.163 209.891H431.049C463.291 209.891 463.291 250.872 431.049 250.872H404.163C398.355 271.744 388.948 291.54 376.361 309.537L395.414 328.59C406.475 339.651 412.704 354.675 412.704 370.291C412.704 385.907 406.475 400.931 395.414 411.992C372.822 434.584 336.171 434.584 313.579 411.992L294.526 392.939C276.529 405.526 256.733 414.933 235.861 420.741V447.625C235.861 463.385 229.648 478.434 218.428 489.605C207.24 500.736 192.175 506.924 176.415 506.924H235.58C251.34 506.924 266.405 500.736 277.593 489.605C288.724 478.474 294.912 463.409 294.912 447.65V420.764C315.784 414.956 335.58 405.549 353.577 392.962L372.63 412.015C383.691 423.076 398.715 429.305 414.331 429.305C429.947 429.305 444.971 423.076 456.032 412.015C478.624 389.423 478.624 352.772 456.032 330.18L436.979 311.127C449.566 293.13 458.973 273.334 464.781 252.462H491.667C523.909 252.462 523.909 211.481 491.667 211.481H464.781C458.973 190.609 449.566 170.813 436.979 152.816L456.032 133.763C467.093 122.702 473.322 107.678 473.322 92.0622C473.322 76.4464 467.093 61.4221 456.032 50.3611C433.441 27.7695 396.789 27.7695 374.197 50.3611L355.144 69.4141C337.147 56.827 317.351 47.42 296.479 41.612V14.7262C296.479 -17.5153 255.498 -17.5153 255.498 14.7262V41.612C234.626 47.42 214.83 56.827 196.833 69.4141L177.78 50.3611C166.719 39.3001 151.695 33.0711 136.079 33.0711C120.463 33.0711 105.439 39.3001 94.3781 50.3611C71.7865 72.9527 71.7865 109.604 94.3781 132.196L113.431 151.249C100.844 169.246 91.4369 189.042 85.6289 209.914H58.7431C26.5016 209.914 26.5016 250.895 58.7431 250.895H85.6289C91.4369 271.767 100.844 291.563 113.431 309.56L94.3781 328.613C83.3171 339.674 77.0881 354.698 77.0881 370.314C77.0881 385.93 83.3171 400.954 94.3781 412.015C116.97 434.607 153.621 434.607 176.213 412.015L195.266 392.962C213.263 405.549 233.059 414.956 253.931 420.764V447.65C253.931 463.41 260.119 478.475 271.307 489.606C282.495 500.737 297.56 506.925 313.32 506.925H256V512ZM256 312C286.928 312 312 286.928 312 256C312 225.072 286.928 200 256 200C225.072 200 200 225.072 200 256C200 286.928 225.072 312 256 312Z" fill="#0F2942"/>
</svg>
